# Wavefront OBJ file automatically generated by Tiled2Unity

# Vertices (Count = 63)
v -608 -224 0
v -640 -224 0
v -640 -192 0
v -608 -192 0
v -576 -224 0
v -576 -192 0
v -544 -224 0
v -544 -192 0
v -512 -224 0
v -512 -192 0
v -480 -224 0
v -480 -192 0
v -448 -224 0
v -448 -192 0
v -416 -224 0
v -416 -192 0
v -384 -224 0
v -384 -192 0
v -352 -224 0
v -352 -192 0
v -320 -224 0
v -320 -192 0
v -288 -224 0
v -288 -192 0
v -256 -224 0
v -256 -192 0
v -224 -224 0
v -224 -192 0
v -192 -224 0
v -192 -192 0
v -160 -224 0
v -160 -192 0
v -128 -224 0
v -128 -192 0
v -96 -224 0
v -96 -192 0
v -64 -224 0
v -64 -192 0
v -32 -224 0
v -32 -192 0
v 0 -224 0
v 0 -192 0
v -640 -160 0
v -608 -160 0
v -576 -160 0
v -544 -160 0
v -512 -160 0
v -480 -160 0
v -448 -160 0
v -416 -160 0
v -384 -160 0
v -352 -160 0
v -320 -160 0
v -288 -160 0
v -256 -160 0
v -224 -160 0
v -192 -160 0
v -160 -160 0
v -128 -160 0
v -96 -160 0
v -64 -160 0
v -32 -160 0
v 0 -160 0

# Texture cooridinates (Count = 8)
vt 6.103516E-05 0.0001220703
vt 0.499939 0.0001220703
vt 0.499939 0.9998779
vt 6.103516E-05 0.9998779
vt 0.500061 0.0001220703
vt 0.999939 0.0001220703
vt 0.999939 0.9998779
vt 0.500061 0.9998779

# Normal
vn 0 0 -1

# Groups (Count = 1)

g mesh_0001
f 1/1/1 2/2/1 3/3/1 4/4/1
f 5/1/1 1/2/1 4/3/1 6/4/1
f 7/1/1 5/2/1 6/3/1 8/4/1
f 9/1/1 7/2/1 8/3/1 10/4/1
f 11/1/1 9/2/1 10/3/1 12/4/1
f 13/1/1 11/2/1 12/3/1 14/4/1
f 15/1/1 13/2/1 14/3/1 16/4/1
f 17/1/1 15/2/1 16/3/1 18/4/1
f 19/1/1 17/2/1 18/3/1 20/4/1
f 21/1/1 19/2/1 20/3/1 22/4/1
f 23/5/1 21/6/1 22/7/1 24/8/1
f 25/5/1 23/6/1 24/7/1 26/8/1
f 27/5/1 25/6/1 26/7/1 28/8/1
f 29/5/1 27/6/1 28/7/1 30/8/1
f 31/1/1 29/2/1 30/3/1 32/4/1
f 33/1/1 31/2/1 32/3/1 34/4/1
f 35/1/1 33/2/1 34/3/1 36/4/1
f 37/1/1 35/2/1 36/3/1 38/4/1
f 39/1/1 37/2/1 38/3/1 40/4/1
f 41/1/1 39/2/1 40/3/1 42/4/1
f 4/1/1 3/2/1 43/3/1 44/4/1
f 6/1/1 4/2/1 44/3/1 45/4/1
f 8/1/1 6/2/1 45/3/1 46/4/1
f 10/1/1 8/2/1 46/3/1 47/4/1
f 12/1/1 10/2/1 47/3/1 48/4/1
f 14/1/1 12/2/1 48/3/1 49/4/1
f 16/1/1 14/2/1 49/3/1 50/4/1
f 18/1/1 16/2/1 50/3/1 51/4/1
f 20/1/1 18/2/1 51/3/1 52/4/1
f 22/1/1 20/2/1 52/3/1 53/4/1
f 24/5/1 22/6/1 53/7/1 54/8/1
f 26/5/1 24/6/1 54/7/1 55/8/1
f 28/5/1 26/6/1 55/7/1 56/8/1
f 30/5/1 28/6/1 56/7/1 57/8/1
f 32/1/1 30/2/1 57/3/1 58/4/1
f 34/1/1 32/2/1 58/3/1 59/4/1
f 36/1/1 34/2/1 59/3/1 60/4/1
f 38/1/1 36/2/1 60/3/1 61/4/1
f 40/1/1 38/2/1 61/3/1 62/4/1
f 42/1/1 40/2/1 62/3/1 63/4/1

